<svg width="80" height="20" viewBox="0 0 80 20" fill="none" xmlns="http://www.w3.org/2000/svg">
<g clip-path="url(#clip0_106_2)">
<path d="M2.733 6.34851C2.37413 6.69243 2.08947 7.10072 1.89525 7.55007C1.70103 7.99942 1.60107 8.48103 1.60107 8.96741C1.60109 9.45379 1.70105 9.9354 1.89528 10.3848C2.0895 10.8341 2.37419 11.2424 2.73306 11.5863L5.4658 8.96744L2.733 6.34851Z" fill="#166B7C"/>
<path d="M9.56489 15.5153C10.3195 14.792 10.3195 13.6195 9.56489 12.8964L5.46565 8.9679L2.73291 11.5868L6.83213 15.5153C7.58677 16.2384 8.81025 16.2384 9.56489 15.5153Z" fill="#166B7C"/>
<path d="M9.56481 2.42057C8.81016 1.69737 7.58664 1.69737 6.83199 2.42057L2.73291 6.34887L5.46571 8.96781L9.56479 5.03951C10.3194 4.31631 10.3194 3.14377 9.56481 2.42057Z" fill="#2594A6"/>
<path d="M76.2723 11.5871C76.6313 11.2432 76.9159 10.8349 77.1101 10.3855C77.3043 9.93615 77.4043 9.45454 77.4043 8.96816C77.4043 8.48179 77.3043 8.00018 77.1101 7.55082C76.9159 7.10147 76.6312 6.69317 76.2723 6.34924L73.5396 8.96813L76.2723 11.5871Z" fill="#166B7C"/>
<path d="M69.4405 2.42044C68.6858 3.14362 68.6858 4.31613 69.4405 5.03932L73.5396 8.96774L76.2724 6.34887L72.1733 2.42044C71.4186 1.69725 70.1951 1.69725 69.4405 2.42044Z" fill="#166B7C"/>
<path d="M69.4405 15.5152C70.1952 16.2383 71.4187 16.2383 72.1734 15.5152L76.2724 11.5868L73.5396 8.9679L69.4405 12.8962C68.6858 13.6194 68.6858 14.7919 69.4405 15.5152Z" fill="#2594A6"/>
<path d="M45.6491 14.6888L45.7998 14.6833H45.8288C45.8559 14.6833 45.8694 14.6888 45.8694 14.6999C45.8694 14.7369 45.8346 14.7574 45.765 14.7611C45.2085 14.7981 44.88 14.8241 44.7795 14.8388C44.3158 15.3944 43.8655 15.8277 43.4288 16.1388C43.5331 16.1869 43.7052 16.2314 43.9447 16.2722C43.9795 16.2758 43.9969 16.2869 43.9969 16.3055C43.9969 16.3241 43.9777 16.3333 43.9389 16.3333C43.7844 16.3333 43.5951 16.2833 43.3708 16.1833C42.9922 16.4425 42.6636 16.5722 42.3853 16.5722C42.2076 16.5722 42.1187 16.5185 42.1187 16.4111C42.1187 16.3333 42.1418 16.2777 42.1882 16.2444C42.1766 16.2777 42.1708 16.3129 42.1708 16.3499C42.1708 16.4499 42.2443 16.4999 42.3911 16.4999C42.6462 16.4999 42.94 16.3796 43.2723 16.1388C43.2337 16.1203 43.1737 16.0852 43.0926 16.0333C42.8298 16.2147 42.6211 16.3055 42.4665 16.3055C42.4395 16.3055 42.4259 16.2981 42.4259 16.2833C42.4259 16.2574 42.4453 16.2425 42.4839 16.2388C42.6771 16.1758 42.8569 16.0869 43.023 15.9722C42.9071 15.8647 42.8491 15.7536 42.8491 15.6388C42.8491 15.4277 43.025 15.2369 43.3766 15.0666C43.6085 14.9518 43.881 14.8647 44.194 14.8055C44.7313 14.1277 45.1429 13.4314 45.4288 12.7166C45.4443 12.6833 45.51 12.4833 45.6259 12.1166C45.6298 12.0907 45.6453 12.0777 45.6723 12.0777C45.6762 12.0814 45.6781 12.0852 45.6781 12.0888C45.6781 12.3852 45.5042 12.8499 45.1563 13.4833C44.9013 13.9536 44.625 14.3869 44.3273 14.7833L44.6056 14.7555C44.8607 14.4222 45.1409 13.9796 45.4462 13.4277C45.7554 12.8758 45.91 12.4629 45.91 12.1888C45.91 12.0185 45.8308 11.9222 45.6723 11.8999C45.6375 11.8925 45.6201 11.8796 45.6201 11.8611C45.6201 11.8425 45.6414 11.8333 45.6839 11.8333C45.823 11.8333 45.9331 11.8758 46.0143 11.9611C46.0916 12.0536 46.1302 12.1666 46.1302 12.2999C46.1302 12.5999 45.9777 13.0203 45.6723 13.5611C45.4559 13.9352 45.1873 14.3258 44.8665 14.7333C45.2067 14.7036 45.4675 14.6888 45.6491 14.6888ZM47.3476 15.6999C47.3476 15.7592 47.3052 15.8425 47.2201 15.9499C47.1351 16.0611 47.0559 16.1352 46.9824 16.1722C46.909 16.2129 46.8182 16.2333 46.71 16.2333C46.6018 16.2333 46.4742 16.1758 46.3273 16.0611C46.1806 15.9499 46.0704 15.8185 45.9969 15.6666C45.9273 15.5185 45.8926 15.3055 45.8926 15.0277C45.8926 14.7463 45.9215 14.3703 45.9795 13.8999C46.0375 13.4258 46.0704 13.1333 46.0781 13.0222C46.0858 12.9074 46.1013 12.8499 46.1244 12.8499C46.1592 12.8499 46.1786 12.8888 46.1824 12.9666V13.8499C46.1824 14.8277 46.2655 15.4944 46.4317 15.8499C46.5322 16.0685 46.6482 16.1777 46.7795 16.1777C46.9534 16.1777 47.1429 16.0185 47.3476 15.6999ZM44.5071 14.8777C44.4182 14.8963 44.3139 14.9222 44.194 14.9555C43.8578 15.3703 43.5197 15.7074 43.1795 15.9666C43.2143 16.0111 43.2665 16.0536 43.336 16.0944C43.6916 15.8241 44.082 15.4185 44.5071 14.8777ZM44.0433 14.9999C43.4172 15.2369 43.1042 15.4888 43.1042 15.7555C43.1042 15.7999 43.1139 15.8463 43.1331 15.8944C43.4269 15.6685 43.7302 15.3703 44.0433 14.9999ZM48.4899 14.2777C48.4899 14.3852 48.4551 14.4852 48.3855 14.5777C48.3198 14.6703 48.256 14.7166 48.1942 14.7166C48.1827 14.7166 48.1769 14.7092 48.1769 14.6944C48.2 14.6388 48.2271 14.5796 48.258 14.5166C48.2889 14.4499 48.3044 14.3758 48.3044 14.2944C48.3044 14.2092 48.2715 14.1666 48.2058 14.1666C48.1169 14.1666 47.9758 14.2703 47.7827 14.4777C47.5932 14.6814 47.4599 14.8481 47.3827 14.9777L47.1334 15.6166C47.1256 15.6241 47.1102 15.6277 47.087 15.6277C47.0676 15.6277 47.0367 15.6147 46.9942 15.5888C46.9555 15.5629 46.9363 15.5407 46.9363 15.5222C46.9439 15.5074 46.9537 15.4833 46.9653 15.4499C46.9807 15.4166 46.9942 15.3907 47.0058 15.3722C47.1566 15.0647 47.2589 14.8166 47.3131 14.6277C47.3711 14.4352 47.4 14.2463 47.4 14.0611C47.3845 14.1203 47.3149 14.2518 47.1913 14.4555C47.0058 14.7629 46.9015 14.9166 46.8783 14.9166C46.8551 14.9166 46.8435 14.9111 46.8435 14.8999C46.8435 14.8925 46.9227 14.7647 47.0812 14.5166C47.2435 14.2685 47.3537 14.0369 47.4116 13.8222C47.4348 13.7258 47.4734 13.6777 47.5276 13.6777C47.5894 13.6777 47.6203 13.7518 47.6203 13.8999C47.6203 14.1666 47.5314 14.4944 47.3537 14.8833C47.5624 14.6352 47.7073 14.4685 47.7884 14.3833C48.0087 14.1574 48.1807 14.0444 48.3044 14.0444C48.428 14.0444 48.4899 14.1222 48.4899 14.2777ZM49.564 14.7944C49.5718 14.7944 49.5756 14.7981 49.5756 14.8055C49.5756 14.8685 49.4694 15.0074 49.2567 15.2222C49.0868 15.3852 48.9573 15.4666 48.8683 15.4666C48.6712 15.4666 48.5727 15.3722 48.5727 15.1833C48.5727 15.0425 48.6114 14.8647 48.6886 14.6499L48.5843 14.8055C48.5341 14.8869 48.4993 14.9277 48.4799 14.9277C48.4723 14.9277 48.4683 14.9185 48.4683 14.8999C48.4683 14.8777 48.4973 14.8296 48.5553 14.7555C48.6133 14.6814 48.6984 14.5296 48.8104 14.2999C48.8413 14.2222 48.8839 14.1352 48.9379 14.0388C48.9573 14.0055 49.0017 13.9888 49.0712 13.9888C49.1447 13.9888 49.1814 14.0074 49.1814 14.0444C49.1814 14.0814 49.1621 14.1369 49.1234 14.2111C49.0848 14.2852 49.052 14.3277 49.0249 14.3388C48.8239 14.7241 48.7234 15.0074 48.7234 15.1888C48.7234 15.3111 48.766 15.3722 48.8509 15.3722C48.9901 15.3722 49.1428 15.2758 49.3089 15.0833C49.3785 15.0055 49.421 14.9592 49.4365 14.9444C49.452 14.9258 49.4674 14.9074 49.4828 14.8888C49.4984 14.8703 49.5118 14.8555 49.5234 14.8444C49.5428 14.8258 49.5563 14.8092 49.564 14.7944ZM49.3843 13.2833C49.4694 13.2463 49.5216 13.2277 49.5408 13.2277C49.5602 13.2277 49.5698 13.2333 49.5698 13.2444C49.5698 13.2518 49.5254 13.3036 49.4365 13.3999L49.3495 13.5722C49.3147 13.6463 49.2703 13.6833 49.2162 13.6833C49.1389 13.6833 49.1002 13.6444 49.1002 13.5666C49.1002 13.5296 49.1254 13.4833 49.1756 13.4277C49.2297 13.3685 49.2993 13.3203 49.3843 13.2833ZM51.2616 14.7999C51.2654 14.7999 51.2674 14.8055 51.2674 14.8166C51.2674 14.8277 51.252 14.8592 51.221 14.9111C51.1013 15.0963 50.9273 15.2685 50.6993 15.4277C50.4712 15.5833 50.2567 15.6611 50.0558 15.6611C49.7814 15.6611 49.6442 15.4907 49.6442 15.1499C49.6442 15.0352 49.6578 14.9129 49.6848 14.7833C49.65 14.7536 49.6191 14.7129 49.592 14.6611C49.5959 14.6647 49.6056 14.6703 49.621 14.6777C49.6364 14.6814 49.65 14.6869 49.6616 14.6944C49.677 14.6981 49.6926 14.7018 49.708 14.7055C49.7466 14.5241 49.8645 14.3369 50.0616 14.1444C50.2587 13.9518 50.45 13.8555 50.6355 13.8555C50.6781 13.8555 50.6993 13.8611 50.6993 13.8722C50.6993 13.8796 50.6723 13.8981 50.6181 13.9277C50.4752 14.0018 50.3418 14.1166 50.2181 14.2722C50.0868 14.4277 49.992 14.5833 49.9341 14.7388L49.9457 14.7499C50.1312 14.7499 50.3244 14.6647 50.5254 14.4944C50.7263 14.3241 50.8268 14.1499 50.8268 13.9722C50.8268 13.9203 50.8114 13.8722 50.7804 13.8277C50.7534 13.7796 50.7071 13.7555 50.6413 13.7555C50.5756 13.7555 50.4926 13.7852 50.392 13.8444C50.2955 13.8999 50.2413 13.9277 50.2297 13.9277C50.222 13.9277 50.2181 13.9258 50.2181 13.9222C50.2181 13.8777 50.2799 13.8314 50.4036 13.7833C50.5312 13.7352 50.6335 13.7111 50.7109 13.7111C50.792 13.7111 50.8616 13.7352 50.9196 13.7833C50.9775 13.8314 51.0065 13.8981 51.0065 13.9833C51.0065 14.1796 50.879 14.3647 50.6239 14.5388C50.3727 14.7129 50.135 14.8092 49.9109 14.8277C49.8799 14.9166 49.8645 15.0018 49.8645 15.0833C49.8645 15.3907 49.9805 15.5444 50.2123 15.5444C50.3901 15.5444 50.5679 15.4777 50.7457 15.3444C50.9234 15.2074 51.0665 15.0518 51.1747 14.8777C51.2094 14.8258 51.2384 14.7999 51.2616 14.7999ZM52.7046 12.7444C52.6737 12.7592 52.6389 12.7869 52.6003 12.8277C51.8892 14.0981 51.5336 14.9147 51.5336 15.2777C51.5336 15.3999 51.5762 15.4611 51.6611 15.4611C51.7693 15.4611 51.92 15.3796 52.1133 15.2166C52.1443 15.1907 52.1655 15.1722 52.1771 15.1611C52.1925 15.1499 52.1983 15.1444 52.1945 15.1444C52.2099 15.1444 52.2177 15.1499 52.2177 15.1611C52.2177 15.1722 52.2099 15.1888 52.1945 15.2111C52.0244 15.4407 51.8505 15.5555 51.6727 15.5555C51.4795 15.5555 51.3829 15.4574 51.3829 15.2611C51.3829 15.0647 51.4814 14.7111 51.6785 14.1999C51.582 14.3258 51.5142 14.3888 51.4756 14.3888C51.464 14.3888 51.4582 14.3852 51.4582 14.3777C51.4582 14.3703 51.5084 14.3036 51.609 14.1777C51.7133 14.0481 51.7693 13.9758 51.7771 13.9611C51.8969 13.6277 52.0766 13.2277 52.3162 12.7611C52.5559 12.2944 52.72 11.9833 52.809 11.8277C52.8399 11.7647 52.9037 11.7333 53.0003 11.7333C53.1008 11.7333 53.151 11.7463 53.151 11.7722C53.151 11.7981 53.0022 12.1222 52.7046 12.7444ZM55.6865 14.6888L55.8373 14.6833H55.8662C55.8933 14.6833 55.9068 14.6888 55.9068 14.6999C55.9068 14.7369 55.872 14.7574 55.8025 14.7611C55.246 14.7981 54.9174 14.8241 54.817 14.8388C54.3532 15.3944 53.9029 15.8277 53.4662 16.1388C53.5706 16.1869 53.7425 16.2314 53.9822 16.2722C54.017 16.2758 54.0344 16.2869 54.0344 16.3055C54.0344 16.3241 54.015 16.3333 53.9764 16.3333C53.8217 16.3333 53.6324 16.2833 53.4083 16.1833C53.0295 16.4425 52.701 16.5722 52.4228 16.5722C52.2449 16.5722 52.1561 16.5185 52.1561 16.4111C52.1561 16.3333 52.1793 16.2777 52.2257 16.2444C52.2141 16.2777 52.2083 16.3129 52.2083 16.3499C52.2083 16.4499 52.2817 16.4999 52.4286 16.4999C52.6836 16.4999 52.9773 16.3796 53.3097 16.1388C53.271 16.1203 53.2112 16.0852 53.13 16.0333C52.8672 16.2147 52.6585 16.3055 52.5039 16.3055C52.4768 16.3055 52.4633 16.2981 52.4633 16.2833C52.4633 16.2574 52.4826 16.2425 52.5213 16.2388C52.7145 16.1758 52.8942 16.0869 53.0604 15.9722C52.9445 15.8647 52.8865 15.7536 52.8865 15.6388C52.8865 15.4277 53.0623 15.2369 53.4141 15.0666C53.646 14.9518 53.9184 14.8647 54.2315 14.8055C54.7686 14.1277 55.1802 13.4314 55.4662 12.7166C55.4817 12.6833 55.5474 12.4833 55.6634 12.1166C55.6672 12.0907 55.6826 12.0777 55.7097 12.0777C55.7136 12.0814 55.7155 12.0852 55.7155 12.0888C55.7155 12.3852 55.5416 12.8499 55.1938 13.4833C54.9387 13.9536 54.6623 14.3869 54.3648 14.7833L54.6431 14.7555C54.8981 14.4222 55.1782 13.9796 55.4836 13.4277C55.7927 12.8758 55.9474 12.4629 55.9474 12.1888C55.9474 12.0185 55.8681 11.9222 55.7097 11.8999C55.6749 11.8925 55.6576 11.8796 55.6576 11.8611C55.6576 11.8425 55.6788 11.8333 55.7213 11.8333C55.8605 11.8333 55.9706 11.8758 56.0518 11.9611C56.129 12.0536 56.1677 12.1666 56.1677 12.2999C56.1677 12.5999 56.015 13.0203 55.7097 13.5611C55.4933 13.9352 55.2246 14.3258 54.9039 14.7333C55.244 14.7036 55.5049 14.6888 55.6865 14.6888ZM57.3851 15.6999C57.3851 15.7592 57.3425 15.8425 57.2576 15.9499C57.1725 16.0611 57.0933 16.1352 57.0199 16.1722C56.9464 16.2129 56.8556 16.2333 56.7474 16.2333C56.6391 16.2333 56.5116 16.1758 56.3648 16.0611C56.2179 15.9499 56.1078 15.8185 56.0344 15.6666C55.9648 15.5185 55.93 15.3055 55.93 15.0277C55.93 14.7463 55.959 14.3703 56.017 13.8999C56.0749 13.4258 56.1078 13.1333 56.1155 13.0222C56.1232 12.9074 56.1387 12.8499 56.1619 12.8499C56.1967 12.8499 56.2159 12.8888 56.2199 12.9666V13.8499C56.2199 14.8277 56.3029 15.4944 56.4691 15.8499C56.5696 16.0685 56.6855 16.1777 56.817 16.1777C56.9909 16.1777 57.1802 16.0185 57.3851 15.6999ZM54.5445 14.8777C54.4556 14.8963 54.3512 14.9222 54.2315 14.9555C53.8952 15.3703 53.557 15.7074 53.217 15.9666C53.2518 16.0111 53.3039 16.0536 53.3735 16.0944C53.729 15.8241 54.1194 15.4185 54.5445 14.8777ZM54.0807 14.9999C53.4547 15.2369 53.1416 15.4888 53.1416 15.7555C53.1416 15.7999 53.1512 15.8463 53.1706 15.8944C53.4643 15.6685 53.7677 15.3703 54.0807 14.9999ZM56.8287 15.5888L57.1533 14.1833C57.1379 14.1314 57.0953 14.0314 57.0258 13.8833C57.0258 13.8574 57.0586 13.8333 57.1243 13.8111C57.3176 13.7407 57.4412 13.7055 57.4953 13.7055C57.5533 13.7055 57.5823 13.7222 57.5823 13.7555C57.4393 14.0963 57.3408 14.3333 57.2867 14.4666C57.2867 14.4777 57.2867 14.4888 57.2867 14.4999C57.2867 14.6147 57.2693 14.6722 57.2345 14.6722C57.2267 14.6722 57.2209 14.6666 57.2171 14.6555C57.1359 14.8888 57.0799 15.0592 57.049 15.1666C57.2267 14.8888 57.4084 14.6463 57.5939 14.4388C57.8838 14.1166 58.1234 13.9555 58.3127 13.9555C58.4017 13.9555 58.4461 13.9888 58.4461 14.0555C58.4461 14.0814 58.334 14.4888 58.1098 15.2777C58.334 15.1185 58.5079 14.9481 58.6316 14.7666C58.6509 14.7444 58.6644 14.7333 58.6722 14.7333C58.6838 14.7333 58.6896 14.7388 58.6896 14.7499C58.6896 14.7611 58.6838 14.7758 58.6722 14.7944C58.5021 15.0833 58.2953 15.3129 58.0519 15.4833C58.0325 15.5055 58.0075 15.5166 57.9765 15.5166C57.9495 15.5166 57.9359 15.4999 57.9359 15.4666C57.9359 15.4333 57.9591 15.3074 58.0055 15.0888C58.0519 14.8703 58.0847 14.7036 58.104 14.5888C58.1272 14.4741 58.1427 14.3296 58.1504 14.1555C57.9919 14.2296 57.7968 14.3888 57.5649 14.6333C57.333 14.8777 57.1785 15.0685 57.1011 15.2055C57.0278 15.3425 56.9794 15.4555 56.9562 15.5444C56.9369 15.6296 56.9098 15.6722 56.8751 15.6722C56.8441 15.6722 56.8287 15.6481 56.8287 15.5999V15.5888ZM57.2403 13.8499C57.2209 13.8647 57.1843 13.8833 57.1301 13.9055L57.1881 14.0333L57.2403 13.8499ZM60.4581 13.4666C60.5045 13.4777 60.5277 13.5147 60.5277 13.5777C60.5277 13.6369 60.4775 13.7444 60.377 13.8999C60.2804 14.0555 60.205 14.1518 60.1509 14.1888C60.0775 14.3333 60.0118 14.5147 59.9538 14.7333C59.8998 14.9481 59.8726 15.1388 59.8726 15.3055C59.8726 15.4722 59.9229 15.5555 60.0233 15.5555C60.1432 15.5555 60.2842 15.4555 60.4465 15.2555C60.5007 15.1963 60.605 15.0463 60.7596 14.8055C60.7751 14.7833 60.7886 14.7722 60.8002 14.7722C60.8118 14.7722 60.8176 14.7777 60.8176 14.7888L60.806 14.8222C60.5085 15.3741 60.2302 15.6499 59.9712 15.6499C59.7471 15.6499 59.6349 15.4944 59.6349 15.1833C59.6349 15.0314 59.6697 14.8055 59.7393 14.5055C59.5925 14.7758 59.463 14.9888 59.3509 15.1444C59.1422 15.4185 58.949 15.5555 58.7712 15.5555C58.5934 15.5555 58.5045 15.4407 58.5045 15.2111C58.5045 14.8592 58.6998 14.4852 59.09 14.0888C59.4804 13.6925 59.863 13.4741 60.2378 13.4333C60.52 12.7703 60.7616 12.2518 60.9625 11.8777C61.0282 11.7925 61.1326 11.7499 61.2755 11.7499C61.3297 11.7499 61.3567 11.7629 61.3567 11.7888C61.0552 12.3333 60.7558 12.8925 60.4581 13.4666ZM58.6494 15.1055C58.6494 15.2685 58.7016 15.3499 58.806 15.3499C59.0882 15.3499 59.3645 15.0481 59.6349 14.4444C59.5577 14.4666 59.5036 14.4777 59.4726 14.4777C59.4456 14.4777 59.432 14.4703 59.432 14.4555C59.432 14.4369 59.4572 14.4203 59.5074 14.4055C59.5616 14.3869 59.6273 14.3518 59.7045 14.2999C59.7393 14.2111 59.7664 14.1352 59.7857 14.0722C59.8089 14.0092 59.8282 13.9777 59.8436 13.9777C59.8708 13.9777 59.8842 13.9944 59.8842 14.0277C59.8842 14.0611 59.8668 14.1222 59.832 14.2111L59.9364 14.1388L60.1799 13.5611C59.8862 13.6241 59.5577 13.8296 59.1944 14.1777C58.8311 14.5258 58.6494 14.8352 58.6494 15.1055ZM62.3486 14.2777C62.3486 14.3852 62.3138 14.4852 62.2442 14.5777C62.1785 14.6703 62.1147 14.7166 62.0529 14.7166C62.0413 14.7166 62.0355 14.7092 62.0355 14.6944C62.0587 14.6388 62.0857 14.5796 62.1167 14.5166C62.1476 14.4499 62.1631 14.3758 62.1631 14.2944C62.1631 14.2092 62.1303 14.1666 62.0645 14.1666C61.9756 14.1666 61.8346 14.2703 61.6413 14.4777C61.452 14.6814 61.3187 14.8481 61.2413 14.9777L60.992 15.6166C60.9843 15.6241 60.9689 15.6277 60.9457 15.6277C60.9263 15.6277 60.8955 15.6147 60.8529 15.5888C60.8143 15.5629 60.7949 15.5407 60.7949 15.5222C60.8027 15.5074 60.8123 15.4833 60.8239 15.4499C60.8394 15.4166 60.8529 15.3907 60.8645 15.3722C61.0152 15.0647 61.1176 14.8166 61.1718 14.6277C61.2297 14.4352 61.2587 14.2463 61.2587 14.0611C61.2433 14.1203 61.1737 14.2518 61.05 14.4555C60.8645 14.7629 60.7602 14.9166 60.737 14.9166C60.7138 14.9166 60.7022 14.9111 60.7022 14.8999C60.7022 14.8925 60.7814 14.7647 60.9399 14.5166C61.1022 14.2685 61.2123 14.0369 61.2703 13.8222C61.2935 13.7258 61.3321 13.6777 61.3862 13.6777C61.448 13.6777 61.479 13.7518 61.479 13.8999C61.479 14.1666 61.3901 14.4944 61.2123 14.8833C61.421 14.6352 61.566 14.4685 61.6471 14.3833C61.8674 14.1574 62.0394 14.0444 62.1631 14.0444C62.2868 14.0444 62.3486 14.1222 62.3486 14.2777ZM64.246 14.8555C64.2691 14.8258 64.2865 14.8111 64.2981 14.8111C64.3097 14.8111 64.3155 14.8203 64.3155 14.8388C64.3155 14.8536 64.3078 14.8703 64.2923 14.8888C63.9445 15.3852 63.6759 15.6333 63.4865 15.6333C63.3822 15.6333 63.3029 15.5869 63.2489 15.4944C63.1985 15.3981 63.1735 15.2925 63.1735 15.1777C63.1735 15.0592 63.1927 14.9241 63.2315 14.7722C62.988 15.2907 62.7367 15.5499 62.4778 15.5499C62.3194 15.5499 62.2402 15.4518 62.2402 15.2555C62.2402 14.9407 62.3985 14.6129 62.7155 14.2722C63.0362 13.9314 63.3551 13.7611 63.672 13.7611C63.8228 13.7611 63.8981 13.8241 63.8981 13.9499C63.8981 14.1055 63.7898 14.2611 63.5735 14.4166C63.4614 14.6833 63.4054 14.9407 63.4054 15.1888C63.4054 15.4333 63.4536 15.5555 63.5503 15.5555C63.6778 15.5555 63.9097 15.3222 64.246 14.8555ZM63.6315 14.2277C63.6933 14.1463 63.7242 14.0647 63.7242 13.9833C63.7242 13.9018 63.6836 13.8611 63.6025 13.8611C63.4092 13.8611 63.1561 14.0444 62.8431 14.4111C62.53 14.7741 62.3735 15.0536 62.3735 15.2499C62.3735 15.3352 62.4159 15.3777 62.501 15.3777C62.7445 15.3777 62.9802 15.1185 63.2083 14.5999C63.1387 14.6185 63.0923 14.6277 63.0691 14.6277C63.046 14.6277 63.0344 14.6222 63.0344 14.6111C63.0344 14.5925 63.0614 14.5741 63.1155 14.5555L63.2952 14.4555C63.3029 14.3925 63.3435 14.3111 63.417 14.2111C63.4904 14.1074 63.5599 14.0555 63.6257 14.0555C63.6489 14.0555 63.6605 14.0703 63.6605 14.0999C63.6605 14.1296 63.6507 14.1722 63.6315 14.2277ZM66.1364 13.4666C66.1828 13.4777 66.206 13.5147 66.206 13.5777C66.206 13.6369 66.1556 13.7444 66.0552 13.8999C65.9585 14.0555 65.8832 14.1518 65.8291 14.1888C65.7556 14.3333 65.69 14.5147 65.632 14.7333C65.5779 14.9481 65.5509 15.1388 65.5509 15.3055C65.5509 15.4722 65.6011 15.5555 65.7016 15.5555C65.8214 15.5555 65.9625 15.4555 66.1248 15.2555C66.1788 15.1963 66.2832 15.0463 66.4378 14.8055C66.4533 14.7833 66.4668 14.7722 66.4784 14.7722C66.49 14.7722 66.4958 14.7777 66.4958 14.7888L66.4842 14.8222C66.1866 15.3741 65.9083 15.6499 65.6494 15.6499C65.4252 15.6499 65.3132 15.4944 65.3132 15.1833C65.3132 15.0314 65.348 14.8055 65.4176 14.5055C65.2707 14.7758 65.1411 14.9888 65.0291 15.1444C64.8205 15.4185 64.6272 15.5555 64.4494 15.5555C64.2716 15.5555 64.1828 15.4407 64.1828 15.2111C64.1828 14.8592 64.3779 14.4852 64.7683 14.0888C65.1585 13.6925 65.5411 13.4741 65.9161 13.4333C66.1982 12.7703 66.4397 12.2518 66.6407 11.8777C66.7064 11.7925 66.8107 11.7499 66.9538 11.7499C67.0078 11.7499 67.0349 11.7629 67.0349 11.7888C66.7335 12.3333 66.4339 12.8925 66.1364 13.4666ZM64.3277 15.1055C64.3277 15.2685 64.3799 15.3499 64.4842 15.3499C64.7663 15.3499 65.0426 15.0481 65.3132 14.4444C65.2359 14.4666 65.1817 14.4777 65.1509 14.4777C65.1238 14.4777 65.1103 14.4703 65.1103 14.4555C65.1103 14.4369 65.1353 14.4203 65.1857 14.4055C65.2397 14.3869 65.3054 14.3518 65.3828 14.2999C65.4176 14.2111 65.4446 14.1352 65.4639 14.0722C65.4871 14.0092 65.5064 13.9777 65.5219 13.9777C65.5489 13.9777 65.5625 13.9944 65.5625 14.0277C65.5625 14.0611 65.5451 14.1222 65.5103 14.2111L65.6147 14.1388L65.8581 13.5611C65.5643 13.6241 65.2359 13.8296 64.8726 14.1777C64.5093 14.5258 64.3277 14.8352 64.3277 15.1055ZM68.1716 14.7999C68.1756 14.7999 68.1774 14.8055 68.1774 14.8166C68.1774 14.8277 68.162 14.8592 68.1311 14.9111C68.0113 15.0963 67.8374 15.2685 67.6093 15.4277C67.3814 15.5833 67.1669 15.6611 66.9658 15.6611C66.6915 15.6611 66.5542 15.4907 66.5542 15.1499C66.5542 15.0352 66.5678 14.9129 66.5948 14.7833C66.56 14.7536 66.5292 14.7129 66.5021 14.6611C66.506 14.6647 66.5156 14.6703 66.5311 14.6777C66.5466 14.6814 66.56 14.6869 66.5716 14.6944C66.5872 14.6981 66.6026 14.7018 66.618 14.7055C66.6567 14.5241 66.7745 14.3369 66.9716 14.1444C67.1687 13.9518 67.36 13.8555 67.5456 13.8555C67.5881 13.8555 67.6093 13.8611 67.6093 13.8722C67.6093 13.8796 67.5823 13.8981 67.5282 13.9277C67.3852 14.0018 67.2519 14.1166 67.1282 14.2722C66.9968 14.4277 66.9021 14.5833 66.8441 14.7388L66.8557 14.7499C67.0412 14.7499 67.2345 14.6647 67.4354 14.4944C67.6365 14.3241 67.7369 14.1499 67.7369 13.9722C67.7369 13.9203 67.7214 13.8722 67.6905 13.8277C67.6635 13.7796 67.6171 13.7555 67.5514 13.7555C67.4857 13.7555 67.4026 13.7852 67.3021 13.8444C67.2055 13.8999 67.1514 13.9277 67.1398 13.9277C67.1321 13.9277 67.1282 13.9258 67.1282 13.9222C67.1282 13.8777 67.1901 13.8314 67.3137 13.7833C67.4412 13.7352 67.5437 13.7111 67.6209 13.7111C67.7021 13.7111 67.7716 13.7352 67.8296 13.7833C67.8876 13.8314 67.9166 13.8981 67.9166 13.9833C67.9166 14.1796 67.789 14.3647 67.534 14.5388C67.2828 14.7129 67.0451 14.8092 66.8209 14.8277C66.7901 14.9166 66.7745 15.0018 66.7745 15.0833C66.7745 15.3907 66.8905 15.5444 67.1224 15.5444C67.3002 15.5444 67.478 15.4777 67.6557 15.3444C67.8336 15.2074 67.9765 15.0518 68.0847 14.8777C68.1195 14.8258 68.1485 14.7999 68.1716 14.7999Z" fill="#BEBEBE"/>
<path d="M14.996 9.44C15.308 9.44 15.556 9.312 15.74 9.056C15.924 8.792 16.016 8.4 16.016 7.88C16.016 6.84 15.676 6.32 14.996 6.32C14.74 6.32 14.504 6.416 14.288 6.608C14.08 6.8 13.976 7.004 13.976 7.22V8.54C13.976 8.756 14.08 8.96 14.288 9.152C14.504 9.344 14.74 9.44 14.996 9.44ZM15.836 4.64C16.572 4.64 17.156 4.92 17.588 5.48C18.02 6.032 18.236 6.832 18.236 7.88C18.236 8.904 18.008 9.7 17.552 10.268C17.104 10.836 16.532 11.12 15.836 11.12C15.204 11.12 14.616 10.88 14.072 10.4C14.064 10.392 14.056 10.388 14.048 10.388C14.04 10.388 14.036 10.392 14.036 10.4V12.956C14.036 13.14 13.968 13.3 13.832 13.436C13.696 13.572 13.536 13.64 13.352 13.64H12.44C12.256 13.64 12.096 13.572 11.96 13.436C11.824 13.3 11.756 13.14 11.756 12.956V5.444C11.756 5.26 11.824 5.1 11.96 4.964C12.096 4.828 12.256 4.76 12.44 4.76H13.256C13.448 4.76 13.612 4.828 13.748 4.964C13.884 5.092 13.956 5.252 13.964 5.444V5.54C13.964 5.548 13.968 5.552 13.976 5.552C13.984 5.552 13.992 5.548 14 5.54C14.496 4.94 15.108 4.64 15.836 4.64ZM21.5901 9.188C21.7421 9.436 21.9861 9.56 22.3221 9.56C22.6581 9.56 22.9021 9.436 23.0541 9.188C23.2061 8.932 23.2821 8.496 23.2821 7.88C23.2821 7.264 23.2061 6.832 23.0541 6.584C22.9021 6.328 22.6581 6.2 22.3221 6.2C21.9861 6.2 21.7421 6.328 21.5901 6.584C21.4381 6.832 21.3621 7.264 21.3621 7.88C21.3621 8.496 21.4381 8.932 21.5901 9.188ZM19.9341 5.504C20.5021 4.928 21.2981 4.64 22.3221 4.64C23.3461 4.64 24.1421 4.928 24.7101 5.504C25.2781 6.072 25.5621 6.864 25.5621 7.88C25.5621 8.896 25.2781 9.692 24.7101 10.268C24.1421 10.836 23.3461 11.12 22.3221 11.12C21.2981 11.12 20.5021 10.836 19.9341 10.268C19.3661 9.692 19.0821 8.896 19.0821 7.88C19.0821 6.864 19.3661 6.072 19.9341 5.504ZM31.0065 4.784C31.1905 4.76 31.3505 4.816 31.4865 4.952C31.6225 5.088 31.6905 5.252 31.6905 5.444V5.756C31.6905 5.94 31.6265 6.1 31.4985 6.236C31.3705 6.364 31.2105 6.44 31.0185 6.464C30.4025 6.544 29.9105 6.776 29.5425 7.16C29.1745 7.536 28.9905 7.996 28.9905 8.54V10.316C28.9905 10.5 28.9225 10.66 28.7865 10.796C28.6505 10.932 28.4905 11 28.3065 11H27.3345C27.1505 11 26.9905 10.932 26.8545 10.796C26.7185 10.66 26.6505 10.5 26.6505 10.316V5.444C26.6505 5.26 26.7185 5.1 26.8545 4.964C26.9905 4.828 27.1505 4.76 27.3345 4.76H28.2465C28.4305 4.76 28.5905 4.828 28.7265 4.964C28.8625 5.1 28.9305 5.26 28.9305 5.444V5.948C28.9305 5.956 28.9345 5.96 28.9425 5.96C28.9505 5.96 28.9585 5.956 28.9665 5.948C29.4705 5.284 30.1505 4.896 31.0065 4.784ZM37.3829 5C37.5669 5 37.7269 5.068 37.8629 5.204C37.9989 5.34 38.0669 5.5 38.0669 5.684V5.876C38.0669 6.06 37.9989 6.22 37.8629 6.356C37.7269 6.492 37.5669 6.56 37.3829 6.56H36.3149C36.2429 6.56 36.2069 6.596 36.2069 6.668V8.36C36.2069 8.84 36.2469 9.14 36.3269 9.26C36.4069 9.38 36.5869 9.44 36.8669 9.44C36.9789 9.44 37.1149 9.428 37.2749 9.404C37.4429 9.38 37.5949 9.424 37.7309 9.536C37.8749 9.64 37.9469 9.776 37.9469 9.944V10.256C37.9469 10.456 37.8829 10.636 37.7549 10.796C37.6349 10.948 37.4789 11.036 37.2869 11.06C37.0069 11.1 36.6669 11.12 36.2669 11.12C35.4109 11.12 34.8069 10.936 34.4549 10.568C34.1029 10.2 33.9269 9.544 33.9269 8.6V6.668C33.9269 6.596 33.8909 6.56 33.8189 6.56H33.3509C33.1669 6.56 33.0069 6.492 32.8709 6.356C32.7349 6.22 32.6669 6.06 32.6669 5.876V5.684C32.6669 5.5 32.7349 5.34 32.8709 5.204C33.0069 5.068 33.1669 5 33.3509 5H33.8189C33.8909 5 33.9269 4.964 33.9269 4.892V3.404C33.9269 3.22 33.9949 3.06 34.1309 2.924C34.2669 2.788 34.4269 2.72 34.6109 2.72H35.5229C35.7069 2.72 35.8669 2.788 36.0029 2.924C36.1389 3.06 36.2069 3.22 36.2069 3.404V4.892C36.2069 4.964 36.2429 5 36.3149 5H37.3829ZM44.0791 2.18C44.2711 2.204 44.4271 2.296 44.5471 2.456C44.6751 2.608 44.7391 2.784 44.7391 2.984V3.236C44.7391 3.404 44.6711 3.54 44.5351 3.644C44.4071 3.748 44.2591 3.788 44.0911 3.764C43.9471 3.748 43.8431 3.74 43.7791 3.74C43.4031 3.74 43.1591 3.804 43.0471 3.932C42.9351 4.052 42.8791 4.328 42.8791 4.76V4.892C42.8791 4.964 42.9151 5 42.9871 5H43.9351C44.1191 5 44.2791 5.068 44.4151 5.204C44.5511 5.34 44.6191 5.5 44.6191 5.684V5.876C44.6191 6.06 44.5511 6.22 44.4151 6.356C44.2791 6.492 44.1191 6.56 43.9351 6.56H42.9871C42.9151 6.56 42.8791 6.596 42.8791 6.668V10.316C42.8791 10.5 42.8111 10.66 42.6751 10.796C42.5391 10.932 42.3791 11 42.1951 11H41.2231C41.0391 11 40.8791 10.932 40.7431 10.796C40.6071 10.66 40.5391 10.5 40.5391 10.316V6.668C40.5391 6.596 40.5031 6.56 40.4311 6.56H39.9031C39.7191 6.56 39.5591 6.492 39.4231 6.356C39.2871 6.22 39.2191 6.06 39.2191 5.876V5.684C39.2191 5.5 39.2871 5.34 39.4231 5.204C39.5591 5.068 39.7191 5 39.9031 5H40.4311C40.5031 5 40.5391 4.964 40.5391 4.892V4.76C40.5391 3.848 40.7511 3.18 41.1751 2.756C41.5991 2.332 42.2671 2.12 43.1791 2.12C43.4591 2.12 43.7591 2.14 44.0791 2.18ZM47.7932 9.188C47.9452 9.436 48.1892 9.56 48.5252 9.56C48.8612 9.56 49.1052 9.436 49.2572 9.188C49.4092 8.932 49.4852 8.496 49.4852 7.88C49.4852 7.264 49.4092 6.832 49.2572 6.584C49.1052 6.328 48.8612 6.2 48.5252 6.2C48.1892 6.2 47.9452 6.328 47.7932 6.584C47.6412 6.832 47.5652 7.264 47.5652 7.88C47.5652 8.496 47.6412 8.932 47.7932 9.188ZM46.1372 5.504C46.7052 4.928 47.5012 4.64 48.5252 4.64C49.5492 4.64 50.3452 4.928 50.9132 5.504C51.4812 6.072 51.7652 6.864 51.7652 7.88C51.7652 8.896 51.4812 9.692 50.9132 10.268C50.3452 10.836 49.5492 11.12 48.5252 11.12C47.5012 11.12 46.7052 10.836 46.1372 10.268C45.5692 9.692 45.2852 8.896 45.2852 7.88C45.2852 6.864 45.5692 6.072 46.1372 5.504ZM54.8097 2C54.9937 2 55.1537 2.068 55.2897 2.204C55.4257 2.34 55.4937 2.5 55.4937 2.684V10.316C55.4937 10.5 55.4257 10.66 55.2897 10.796C55.1537 10.932 54.9937 11 54.8097 11H53.7777C53.5937 11 53.4337 10.932 53.2977 10.796C53.1617 10.66 53.0937 10.5 53.0937 10.316V2.684C53.0937 2.5 53.1617 2.34 53.2977 2.204C53.4337 2.068 53.5937 2 53.7777 2H54.8097ZM58.9698 4.76C59.1538 4.76 59.3138 4.828 59.4498 4.964C59.5858 5.1 59.6538 5.26 59.6538 5.444V10.316C59.6538 10.5 59.5858 10.66 59.4498 10.796C59.3138 10.932 59.1538 11 58.9698 11H57.9378C57.7538 11 57.5938 10.932 57.4578 10.796C57.3218 10.66 57.2538 10.5 57.2538 10.316V5.444C57.2538 5.26 57.3218 5.1 57.4578 4.964C57.5938 4.828 57.7538 4.76 57.9378 4.76H58.9698ZM58.9698 2C59.1538 2 59.3138 2.068 59.4498 2.204C59.5858 2.34 59.6538 2.5 59.6538 2.684V2.996C59.6538 3.18 59.5858 3.34 59.4498 3.476C59.3138 3.612 59.1538 3.68 58.9698 3.68H57.9378C57.7538 3.68 57.5938 3.612 57.4578 3.476C57.3218 3.34 57.2538 3.18 57.2538 2.996V2.684C57.2538 2.5 57.3218 2.34 57.4578 2.204C57.5938 2.068 57.7538 2 57.9378 2H58.9698ZM63.4963 9.188C63.6483 9.436 63.8923 9.56 64.2283 9.56C64.5643 9.56 64.8083 9.436 64.9603 9.188C65.1123 8.932 65.1883 8.496 65.1883 7.88C65.1883 7.264 65.1123 6.832 64.9603 6.584C64.8083 6.328 64.5643 6.2 64.2283 6.2C63.8923 6.2 63.6483 6.328 63.4963 6.584C63.3443 6.832 63.2683 7.264 63.2683 7.88C63.2683 8.496 63.3443 8.932 63.4963 9.188ZM61.8403 5.504C62.4083 4.928 63.2043 4.64 64.2283 4.64C65.2523 4.64 66.0483 4.928 66.6163 5.504C67.1843 6.072 67.4683 6.864 67.4683 7.88C67.4683 8.896 67.1843 9.692 66.6163 10.268C66.0483 10.836 65.2523 11.12 64.2283 11.12C63.2043 11.12 62.4083 10.836 61.8403 10.268C61.2723 9.692 60.9883 8.896 60.9883 7.88C60.9883 6.864 61.2723 6.072 61.8403 5.504Z" fill="#ED5C40"/>
</g>
<defs>
<clipPath id="clip0_106_2">
<rect width="80" height="20" fill="white"/>
</clipPath>
</defs>
</svg>
