<svg width="25" height="15" viewBox="0 0 25 15" fill="none" xmlns="http://www.w3.org/2000/svg">
<path d="M23.9082 10.271C24.2544 9.90719 24.5289 9.47521 24.7162 8.99986C24.9035 8.52449 24.9999 8.01501 24.9999 7.50048C24.9999 6.98595 24.9035 6.47647 24.7162 6.0011C24.5289 5.52574 24.2542 5.09381 23.9082 4.72998L21.2725 7.50044L23.9082 10.271Z" fill="#166B7C"/>
<path d="M17.3193 0.573784C16.5915 1.33882 16.5915 2.57919 17.3193 3.34424L21.2729 7.50002L23.9086 4.72957L19.955 0.573784C19.2272 -0.191261 18.0471 -0.191261 17.3193 0.573784Z" fill="#166B7C"/>
<path d="M17.3193 14.4263C18.0472 15.1913 19.2273 15.1913 19.9551 14.4263L23.9086 10.2706L21.2729 7.50012L17.3193 11.6557C16.5915 12.4208 16.5915 13.6612 17.3193 14.4263Z" fill="#2594A6"/>
<path d="M23.9082 10.271C24.2544 9.90719 24.5289 9.47521 24.7162 8.99986C24.9035 8.52449 24.9999 8.01501 24.9999 7.50048C24.9999 6.98595 24.9035 6.47647 24.7162 6.0011C24.5289 5.52574 24.2542 5.09381 23.9082 4.72998L21.2725 7.50044L23.9082 10.271Z" fill="#166B7C"/>
<path d="M17.3193 0.573784C16.5915 1.33882 16.5915 2.57919 17.3193 3.34424L21.2729 7.50002L23.9086 4.72957L19.955 0.573784C19.2272 -0.191261 18.0471 -0.191261 17.3193 0.573784Z" fill="#166B7C"/>
<path d="M17.3193 14.4263C18.0472 15.1913 19.2273 15.1913 19.9551 14.4263L23.9086 10.2706L21.2729 7.50012L17.3193 11.6557C16.5915 12.4208 16.5915 13.6612 17.3193 14.4263Z" fill="#2594A6"/>
<path d="M1.09185 4.72902C0.74564 5.09281 0.471109 5.52479 0.283804 6.00014C0.0964982 6.47551 0.000105564 6.98499 0.000105564 7.49952C0.000105564 8.01405 0.0964982 8.52353 0.283804 8.9989C0.471109 9.47426 0.745752 9.90619 1.09185 10.27L3.72754 7.49956L1.09185 4.72902Z" fill="#166B7C"/>
<path d="M7.68067 14.4262C8.40853 13.6612 8.40853 12.4208 7.68067 11.6558L3.72713 7.49998L1.09143 10.2704L5.04497 14.4262C5.77283 15.1913 6.95291 15.1913 7.68067 14.4262Z" fill="#166B7C"/>
<path d="M7.68067 0.573672C6.9528 -0.191291 5.77273 -0.191291 5.04486 0.573672L1.09143 4.72937L3.72713 7.49988L7.68067 3.34425C8.40853 2.57917 8.40853 1.33875 7.68067 0.573672Z" fill="#2594A6"/>
<path d="M1.09185 4.72902C0.74564 5.09281 0.471109 5.52479 0.283804 6.00014C0.0964982 6.47551 0.000105564 6.98499 0.000105564 7.49952C0.000105564 8.01405 0.0964982 8.52353 0.283804 8.9989C0.471109 9.47426 0.745752 9.90619 1.09185 10.27L3.72754 7.49956L1.09185 4.72902Z" fill="#166B7C"/>
<path d="M7.68067 14.4262C8.40853 13.6612 8.40853 12.4208 7.68067 11.6558L3.72713 7.49998L1.09143 10.2704L5.04497 14.4262C5.77283 15.1913 6.95291 15.1913 7.68067 14.4262Z" fill="#166B7C"/>
<path d="M7.68067 0.573672C6.9528 -0.191291 5.77273 -0.191291 5.04486 0.573672L1.09143 4.72937L3.72713 7.49988L7.68067 3.34425C8.40853 2.57917 8.40853 1.33875 7.68067 0.573672Z" fill="#2594A6"/>
<path d="M12.5689 7.99284C12.9178 7.99284 13.1951 7.84239 13.4009 7.54148C13.6066 7.23117 13.7095 6.77041 13.7095 6.15919C13.7095 4.93675 13.3293 4.32553 12.5689 4.32553C12.2826 4.32553 12.0187 4.43837 11.7772 4.66405C11.5446 4.88974 11.4283 5.12952 11.4283 5.38341V6.93497C11.4283 7.18886 11.5446 7.42864 11.7772 7.65432C12.0187 7.88 12.2826 7.99284 12.5689 7.99284ZM13.5082 2.35083C14.3312 2.35083 14.9843 2.67995 15.4674 3.33818C15.9505 3.98701 16.192 4.92735 16.192 6.15919C16.192 7.36282 15.937 8.29845 15.4271 8.96609C14.9262 9.63373 14.2865 9.96755 13.5082 9.96755C12.8015 9.96755 12.144 9.68545 11.5356 9.12124C11.5267 9.11184 11.5178 9.10714 11.5088 9.10714C11.4999 9.10714 11.4954 9.11184 11.4954 9.12124V12.1256C11.4954 12.3419 11.4193 12.53 11.2673 12.6898C11.1152 12.8497 10.9363 12.9296 10.7305 12.9296H9.71068C9.50492 12.9296 9.326 12.8497 9.17392 12.6898C9.02184 12.53 8.9458 12.3419 8.9458 12.1256V3.29587C8.9458 3.07959 9.02184 2.89152 9.17392 2.73167C9.326 2.57181 9.50492 2.49188 9.71068 2.49188H10.6232C10.8379 2.49188 11.0213 2.57181 11.1733 2.73167C11.3254 2.88212 11.4059 3.07019 11.4149 3.29587V3.40871C11.4149 3.41811 11.4193 3.42281 11.4283 3.42281C11.4372 3.42281 11.4462 3.41811 11.4551 3.40871C12.0098 2.70346 12.6941 2.35083 13.5082 2.35083Z" fill="#EF652A"/>
</svg>
