<svg width="200" height="65" viewBox="0 0 200 65" fill="none" xmlns="http://www.w3.org/2000/svg">
<rect width="200" height="65" fill="black"/>
<path d="M115.774 54.1619L116.063 54.1447H116.119C116.171 54.1447 116.197 54.1619 116.197 54.1963C116.197 54.311 116.13 54.3744 115.996 54.3858C114.929 54.5005 114.298 54.5811 114.106 54.6269C113.216 56.349 112.352 57.6923 111.514 58.6567C111.714 58.8059 112.044 58.9436 112.504 59.07C112.571 59.0814 112.604 59.1158 112.604 59.1734C112.604 59.2309 112.567 59.2595 112.493 59.2595C112.196 59.2595 111.833 59.1045 111.403 58.7945C110.676 59.598 110.046 60 109.512 60C109.171 60 109 59.8336 109 59.5006C109 59.2595 109.044 59.0873 109.133 58.9839C109.111 59.0873 109.1 59.1964 109.1 59.3111C109.1 59.6211 109.241 59.7761 109.523 59.7761C110.012 59.7761 110.576 59.4031 111.213 58.6567C111.139 58.5992 111.024 58.4904 110.869 58.3295C110.365 58.892 109.964 59.1734 109.667 59.1734C109.616 59.1734 109.59 59.1503 109.59 59.1045C109.59 59.0242 109.627 58.9781 109.701 58.9667C110.072 58.7714 110.416 58.4959 110.735 58.1401C110.513 57.807 110.402 57.4626 110.402 57.1068C110.402 56.4524 110.739 55.861 111.414 55.333C111.859 54.9772 112.381 54.7071 112.982 54.5235C114.013 52.4225 114.803 50.2639 115.351 48.0482C115.381 47.9449 115.507 47.3249 115.729 46.1883C115.737 46.108 115.767 46.0677 115.818 46.0677C115.826 46.0791 115.83 46.0908 115.83 46.1022C115.83 47.0208 115.496 48.4615 114.829 50.4248C114.339 51.8828 113.809 53.2261 113.238 54.4547L113.772 54.3685C114.261 53.3352 114.799 51.9634 115.385 50.2526C115.978 48.5418 116.275 47.2619 116.275 46.4122C116.275 45.8842 116.123 45.5855 115.818 45.5166C115.752 45.4936 115.718 45.4536 115.718 45.3961C115.718 45.3386 115.759 45.31 115.841 45.31C116.108 45.31 116.319 45.4419 116.475 45.7061C116.623 45.993 116.697 46.3433 116.697 46.7566C116.697 47.6866 116.404 48.9896 115.818 50.6659C115.403 51.8256 114.888 53.0366 114.272 54.2997C114.925 54.2077 115.426 54.1619 115.774 54.1619ZM119.033 57.2962C119.033 57.4798 118.952 57.7381 118.788 58.0712C118.625 58.4156 118.473 58.6454 118.332 58.76C118.191 58.8865 118.017 58.9495 117.81 58.9495C117.602 58.9495 117.357 58.7714 117.075 58.4156C116.794 58.0712 116.582 57.6637 116.441 57.1929C116.308 56.7338 116.241 56.0735 116.241 55.2124C116.241 54.34 116.297 53.1744 116.408 51.7164C116.519 50.2467 116.582 49.3398 116.597 48.9954C116.612 48.6396 116.642 48.4615 116.686 48.4615C116.753 48.4615 116.79 48.5821 116.797 48.8232V51.5614C116.797 54.5924 116.957 56.659 117.276 57.7612C117.468 58.4387 117.691 58.7773 117.943 58.7773C118.277 58.7773 118.64 58.2837 119.033 57.2962ZM113.583 54.7474C113.412 54.8049 113.212 54.8852 112.982 54.9885C112.337 56.2743 111.688 57.3193 111.036 58.1228C111.102 58.2606 111.202 58.3925 111.336 58.5189C112.018 57.6809 112.767 56.4238 113.583 54.7474ZM112.693 55.1263C111.492 55.861 110.891 56.6418 110.891 57.4684C110.891 57.6062 110.91 57.7498 110.947 57.899C111.51 57.1987 112.092 56.2743 112.693 55.1263ZM121.225 52.8875C121.225 53.2206 121.158 53.5305 121.025 53.8175C120.898 54.1044 120.776 54.248 120.657 54.248C120.635 54.248 120.624 54.2249 120.624 54.1791C120.669 54.0069 120.72 53.8233 120.78 53.628C120.839 53.4214 120.869 53.1916 120.869 52.9391C120.869 52.675 120.806 52.5431 120.68 52.5431C120.509 52.5431 120.238 52.8644 119.868 53.5075C119.504 54.1388 119.248 54.6555 119.1 55.0574L118.622 57.0379C118.607 57.061 118.577 57.0723 118.533 57.0723C118.496 57.0723 118.436 57.032 118.355 56.9518C118.281 56.8715 118.244 56.8026 118.244 56.7451C118.258 56.6993 118.277 56.6246 118.299 56.5212C118.329 56.4179 118.355 56.3377 118.377 56.2801C118.666 55.3271 118.863 54.558 118.967 53.9724C119.078 53.3755 119.134 52.79 119.134 52.2158C119.104 52.3994 118.97 52.8072 118.733 53.4386C118.377 54.3916 118.177 54.868 118.133 54.868C118.088 54.868 118.066 54.8507 118.066 54.8163C118.066 54.7932 118.218 54.3971 118.522 53.628C118.833 52.8589 119.045 52.1411 119.156 51.4753C119.2 51.1767 119.274 51.0276 119.378 51.0276C119.497 51.0276 119.556 51.2573 119.556 51.7164C119.556 52.5431 119.386 53.5591 119.045 54.7646C119.445 53.9955 119.723 53.4789 119.879 53.2147C120.302 52.5145 120.631 52.1642 120.869 52.1642C121.106 52.1642 121.225 52.4053 121.225 52.8875ZM123.286 54.4891C123.301 54.4891 123.308 54.5005 123.308 54.5235C123.308 54.7188 123.104 55.1494 122.696 55.8152C122.37 56.3204 122.121 56.5729 121.951 56.5729C121.573 56.5729 121.384 56.2801 121.384 55.6946C121.384 55.2582 121.458 54.7071 121.606 54.0413L121.406 54.5235C121.31 54.776 121.243 54.9024 121.206 54.9024C121.191 54.9024 121.183 54.8738 121.183 54.8163C121.183 54.7474 121.239 54.5983 121.35 54.3685C121.461 54.1388 121.625 53.6683 121.84 52.9564C121.899 52.7153 121.981 52.4456 122.084 52.147C122.122 52.0436 122.207 51.992 122.34 51.992C122.481 51.992 122.552 52.0495 122.552 52.1642C122.552 52.2789 122.515 52.4511 122.44 52.6808C122.366 52.9106 122.303 53.0425 122.251 53.0769C121.866 54.2711 121.673 55.1494 121.673 55.7118C121.673 56.0907 121.754 56.2801 121.918 56.2801C122.184 56.2801 122.477 55.9815 122.796 55.3846C122.93 55.1435 123.011 54.9999 123.041 54.9541C123.071 54.8966 123.1 54.8394 123.13 54.7819C123.16 54.7243 123.186 54.6785 123.208 54.6441C123.245 54.5866 123.271 54.5349 123.286 54.4891ZM122.941 49.8048C123.104 49.6901 123.204 49.6326 123.241 49.6326C123.278 49.6326 123.297 49.6498 123.297 49.6843C123.297 49.7073 123.212 49.8679 123.041 50.1665L122.874 50.7003C122.807 50.9301 122.722 51.0448 122.618 51.0448C122.47 51.0448 122.396 50.9242 122.396 50.6831C122.396 50.5684 122.444 50.4248 122.54 50.2526C122.644 50.069 122.778 49.9195 122.941 49.8048ZM126.543 54.5063C126.55 54.5063 126.554 54.5235 126.554 54.558C126.554 54.5924 126.524 54.6899 126.465 54.8507C126.235 55.4249 125.902 55.9588 125.464 56.4524C125.026 56.9346 124.615 57.1757 124.229 57.1757C123.703 57.1757 123.44 56.6476 123.44 55.5913C123.44 55.2355 123.466 54.8566 123.517 54.4547C123.451 54.3627 123.391 54.2366 123.339 54.0758C123.347 54.0871 123.366 54.1044 123.395 54.1274C123.425 54.1388 123.451 54.156 123.473 54.1791C123.503 54.1905 123.532 54.2022 123.562 54.2135C123.636 53.6511 123.862 53.0711 124.24 52.4742C124.619 51.8773 124.986 51.5786 125.342 51.5786C125.423 51.5786 125.464 51.5959 125.464 51.6303C125.464 51.6534 125.412 51.7106 125.308 51.8025C125.034 52.0323 124.778 52.3881 124.541 52.8703C124.289 53.3525 124.107 53.8347 123.996 54.3169L124.018 54.3513C124.374 54.3513 124.745 54.0871 125.13 53.5591C125.516 53.0311 125.709 52.4914 125.709 51.9403C125.709 51.7794 125.679 51.6303 125.62 51.4925C125.568 51.3434 125.479 51.2687 125.353 51.2687C125.227 51.2687 125.067 51.3606 124.874 51.5442C124.689 51.7164 124.585 51.8025 124.563 51.8025C124.548 51.8025 124.541 51.7967 124.541 51.7853C124.541 51.6475 124.659 51.5039 124.897 51.3548C125.141 51.2056 125.338 51.1309 125.486 51.1309C125.642 51.1309 125.775 51.2056 125.887 51.3548C125.998 51.5039 126.054 51.7106 126.054 51.9747C126.054 52.5834 125.809 53.1572 125.319 53.6969C124.837 54.2366 124.381 54.5349 123.951 54.5924C123.892 54.868 123.862 55.1321 123.862 55.3846C123.862 56.3377 124.085 56.814 124.53 56.814C124.871 56.814 125.212 56.6073 125.553 56.194C125.894 55.7693 126.169 55.2871 126.376 54.7474C126.443 54.5866 126.498 54.5063 126.543 54.5063ZM129.312 48.1343C129.252 48.1801 129.186 48.2662 129.111 48.3927C127.747 52.3305 127.065 54.8621 127.065 55.9874C127.065 56.3662 127.146 56.5557 127.31 56.5557C127.517 56.5557 127.806 56.3032 128.177 55.7979C128.237 55.7177 128.277 55.6602 128.3 55.6257C128.329 55.5913 128.34 55.5741 128.333 55.5741C128.362 55.5741 128.377 55.5913 128.377 55.6257C128.377 55.6602 128.362 55.7118 128.333 55.7807C128.007 56.4927 127.673 56.8485 127.332 56.8485C126.961 56.8485 126.776 56.5443 126.776 55.9357C126.776 55.3271 126.965 54.2308 127.343 52.6464C127.158 53.0366 127.028 53.2319 126.954 53.2319C126.931 53.2319 126.92 53.2205 126.92 53.1975C126.92 53.1744 127.017 52.9677 127.209 52.5775C127.41 52.1755 127.517 51.9517 127.532 51.9059C127.762 50.8726 128.107 49.6326 128.566 48.186C129.026 46.7394 129.341 45.775 129.512 45.2928C129.571 45.0975 129.694 45 129.879 45C130.072 45 130.168 45.0403 130.168 45.1206C130.168 45.2008 129.883 46.2055 129.312 48.1343ZM135.033 54.1619L135.322 54.1447H135.378C135.43 54.1447 135.456 54.1619 135.456 54.1963C135.456 54.311 135.389 54.3744 135.256 54.3858C134.188 54.5005 133.557 54.5811 133.365 54.6269C132.475 56.349 131.611 57.6923 130.773 58.6567C130.973 58.8059 131.303 58.9436 131.763 59.07C131.83 59.0814 131.863 59.1158 131.863 59.1734C131.863 59.2309 131.826 59.2595 131.752 59.2595C131.455 59.2595 131.092 59.1045 130.662 58.7945C129.935 59.598 129.305 60 128.771 60C128.43 60 128.259 59.8336 128.259 59.5006C128.259 59.2595 128.304 59.0873 128.393 58.9839C128.37 59.0873 128.359 59.1964 128.359 59.3111C128.359 59.6211 128.5 59.7761 128.782 59.7761C129.271 59.7761 129.835 59.4031 130.473 58.6567C130.398 58.5992 130.284 58.4904 130.128 58.3295C129.624 58.892 129.223 59.1734 128.927 59.1734C128.875 59.1734 128.849 59.1503 128.849 59.1045C128.849 59.0242 128.886 58.9781 128.96 58.9667C129.331 58.7714 129.675 58.4959 129.994 58.1401C129.772 57.807 129.661 57.4626 129.661 57.1068C129.661 56.4524 129.998 55.861 130.673 55.333C131.118 54.9772 131.641 54.7071 132.241 54.5235C133.272 52.4225 134.062 50.2639 134.611 48.0482C134.64 47.9449 134.766 47.3249 134.989 46.1883C134.996 46.108 135.026 46.0677 135.078 46.0677C135.085 46.0791 135.089 46.0908 135.089 46.1022C135.089 47.0208 134.755 48.4615 134.088 50.4248C133.598 51.8828 133.068 53.2261 132.497 54.4547L133.031 54.3685C133.52 53.3352 134.058 51.9634 134.644 50.2526C135.237 48.5418 135.534 47.2619 135.534 46.4122C135.534 45.8842 135.382 45.5855 135.078 45.5166C135.011 45.4936 134.978 45.4536 134.978 45.3961C134.978 45.3386 135.018 45.31 135.1 45.31C135.367 45.31 135.578 45.4419 135.734 45.7061C135.882 45.993 135.956 46.3433 135.956 46.7566C135.956 47.6866 135.663 48.9896 135.078 50.6659C134.662 51.8256 134.147 53.0366 133.532 54.2997C134.184 54.2077 134.685 54.1619 135.033 54.1619ZM138.292 57.2962C138.292 57.4798 138.211 57.7381 138.048 58.0712C137.884 58.4156 137.732 58.6454 137.592 58.76C137.451 58.8865 137.276 58.9495 137.069 58.9495C136.861 58.9495 136.616 58.7714 136.335 58.4156C136.053 58.0712 135.841 57.6637 135.701 57.1929C135.567 56.7338 135.5 56.0735 135.5 55.2124C135.5 54.34 135.556 53.1744 135.667 51.7164C135.778 50.2467 135.841 49.3398 135.856 48.9954C135.871 48.6396 135.901 48.4615 135.945 48.4615C136.012 48.4615 136.049 48.5821 136.057 48.8232V51.5614C136.057 54.5924 136.216 56.659 136.535 57.7612C136.728 58.4387 136.95 58.7773 137.202 58.7773C137.536 58.7773 137.899 58.2837 138.292 57.2962ZM132.842 54.7474C132.671 54.8049 132.471 54.8852 132.241 54.9885C131.596 56.2743 130.947 57.3193 130.295 58.1228C130.362 58.2606 130.462 58.3925 130.595 58.5189C131.277 57.6809 132.026 56.4238 132.842 54.7474ZM131.952 55.1263C130.751 55.861 130.15 56.6418 130.15 57.4684C130.15 57.6062 130.169 57.7498 130.206 57.899C130.769 57.1987 131.351 56.2743 131.952 55.1263ZM137.225 56.9518L137.848 52.5947C137.818 52.4339 137.736 52.1239 137.603 51.6648C137.603 51.5845 137.666 51.5098 137.792 51.4409C138.163 51.2228 138.4 51.1137 138.504 51.1137C138.615 51.1137 138.671 51.1653 138.671 51.2687C138.396 52.325 138.207 53.0597 138.103 53.473C138.103 53.5075 138.103 53.5419 138.103 53.5763C138.103 53.9321 138.07 54.1102 138.003 54.1102C137.988 54.1102 137.977 54.093 137.97 54.0586C137.814 54.7819 137.707 55.3099 137.647 55.6429C137.988 54.7819 138.337 54.03 138.693 53.3869C139.249 52.3881 139.709 51.8886 140.072 51.8886C140.243 51.8886 140.328 51.992 140.328 52.1986C140.328 52.2789 140.113 53.5419 139.683 55.9874C140.113 55.4938 140.447 54.9654 140.684 54.403C140.721 54.3341 140.747 54.2997 140.762 54.2997C140.784 54.2997 140.795 54.3169 140.795 54.3513C140.795 54.3858 140.784 54.4316 140.762 54.4891C140.435 55.3846 140.039 56.0966 139.572 56.6246C139.535 56.6935 139.486 56.7279 139.427 56.7279C139.375 56.7279 139.349 56.6762 139.349 56.5729C139.349 56.4696 139.394 56.0793 139.483 55.4018C139.572 54.7243 139.635 54.2077 139.672 53.8519C139.716 53.4961 139.746 53.0483 139.761 52.5086C139.457 52.7383 139.082 53.2319 138.637 53.9897C138.192 54.7474 137.896 55.3388 137.747 55.7635C137.607 56.1882 137.514 56.5385 137.469 56.814C137.432 57.0782 137.38 57.2101 137.314 57.2101C137.254 57.2101 137.225 57.1354 137.225 56.9862V56.9518ZM138.014 51.5614C137.977 51.6072 137.907 51.6648 137.803 51.7336L137.914 52.1297L138.014 51.5614ZM144.189 50.3731C144.278 50.4076 144.322 50.5223 144.322 50.7176C144.322 50.9011 144.226 51.2342 144.033 51.7164C143.848 52.1986 143.703 52.4972 143.599 52.6119C143.458 53.0597 143.332 53.6222 143.221 54.2997C143.117 54.9654 143.065 55.5568 143.065 56.0735C143.065 56.5901 143.162 56.8485 143.354 56.8485C143.584 56.8485 143.855 56.5385 144.166 55.9185C144.27 55.7349 144.471 55.2699 144.767 54.5235C144.797 54.4546 144.823 54.4202 144.845 54.4202C144.867 54.4202 144.878 54.4374 144.878 54.4719L144.856 54.5752C144.285 56.286 143.751 57.1412 143.254 57.1412C142.824 57.1412 142.609 56.659 142.609 55.6946C142.609 55.2238 142.676 54.5235 142.809 53.5936C142.528 54.4316 142.279 55.0918 142.064 55.5741C141.664 56.4238 141.293 56.8485 140.952 56.8485C140.611 56.8485 140.44 56.4927 140.44 55.7807C140.44 54.6899 140.815 53.5305 141.564 52.302C142.313 51.0734 143.047 50.3962 143.766 50.2698C144.307 48.2146 144.771 46.6075 145.156 45.4478C145.283 45.1836 145.483 45.0517 145.757 45.0517C145.861 45.0517 145.913 45.092 145.913 45.1722C145.334 46.8599 144.76 48.5935 144.189 50.3731ZM140.718 55.4535C140.718 55.9588 140.818 56.2113 141.019 56.2113C141.56 56.2113 142.09 55.2754 142.609 53.4041C142.461 53.473 142.357 53.5075 142.298 53.5075C142.246 53.5075 142.22 53.4844 142.22 53.4386C142.22 53.3811 142.268 53.3294 142.364 53.2836C142.468 53.2261 142.594 53.1172 142.743 52.9564C142.809 52.6808 142.861 52.4456 142.898 52.2503C142.943 52.055 142.98 51.9575 143.01 51.9575C143.062 51.9575 143.087 52.0092 143.087 52.1125C143.087 52.2158 143.054 52.4053 142.987 52.6808L143.188 52.4569L143.655 50.6659C143.091 50.8612 142.461 51.4984 141.764 52.5775C141.067 53.6566 140.718 54.6155 140.718 55.4535ZM147.816 52.8875C147.816 53.2206 147.749 53.5305 147.616 53.8175C147.49 54.1044 147.367 54.248 147.249 54.248C147.226 54.248 147.215 54.2249 147.215 54.1791C147.26 54.0069 147.312 53.8233 147.371 53.628C147.43 53.4214 147.46 53.1916 147.46 52.9391C147.46 52.675 147.397 52.5431 147.271 52.5431C147.1 52.5431 146.83 52.8644 146.459 53.5075C146.096 54.1388 145.84 54.6555 145.691 55.0574L145.213 57.0379C145.198 57.061 145.169 57.0723 145.124 57.0723C145.087 57.0723 145.028 57.032 144.946 56.9518C144.872 56.8715 144.835 56.8026 144.835 56.7451C144.85 56.6993 144.868 56.6246 144.891 56.5212C144.92 56.4179 144.946 56.3377 144.968 56.2801C145.258 55.3271 145.454 54.558 145.558 53.9724C145.669 53.3755 145.725 52.79 145.725 52.2158C145.695 52.3994 145.562 52.8072 145.324 53.4386C144.968 54.3916 144.768 54.868 144.724 54.868C144.679 54.868 144.657 54.8507 144.657 54.8163C144.657 54.7932 144.809 54.3971 145.113 53.628C145.424 52.8589 145.636 52.1411 145.747 51.4753C145.792 51.1767 145.866 51.0276 145.969 51.0276C146.088 51.0276 146.147 51.2573 146.147 51.7164C146.147 52.5431 145.977 53.5591 145.636 54.7646C146.036 53.9955 146.314 53.4789 146.47 53.2147C146.893 52.5145 147.223 52.1642 147.46 52.1642C147.697 52.1642 147.816 52.4053 147.816 52.8875ZM151.457 54.6785C151.501 54.5866 151.534 54.5408 151.557 54.5408C151.579 54.5408 151.59 54.5693 151.59 54.6269C151.59 54.6727 151.575 54.7243 151.545 54.7819C150.878 56.3204 150.363 57.0896 149.999 57.0896C149.799 57.0896 149.647 56.9459 149.543 56.659C149.447 56.3604 149.399 56.0332 149.399 55.6774C149.399 55.3099 149.436 54.891 149.51 54.4202C149.043 56.0277 148.561 56.8312 148.064 56.8312C147.76 56.8312 147.608 56.5271 147.608 55.9185C147.608 54.9427 147.912 53.9266 148.52 52.8703C149.135 51.8139 149.747 51.2859 150.355 51.2859C150.645 51.2859 150.789 51.4812 150.789 51.8714C150.789 52.3536 150.581 52.8358 150.166 53.318C149.951 54.1447 149.844 54.9427 149.844 55.7118C149.844 56.4696 149.936 56.8485 150.122 56.8485C150.366 56.8485 150.811 56.1251 151.457 54.6785ZM150.277 52.7325C150.396 52.48 150.455 52.2272 150.455 51.9747C150.455 51.7223 150.378 51.5959 150.222 51.5959C149.851 51.5959 149.365 52.1642 148.765 53.3008C148.164 54.4261 147.864 55.2927 147.864 55.9013C147.864 56.1654 147.945 56.2974 148.108 56.2974C148.576 56.2974 149.028 55.4938 149.465 53.8863C149.332 53.9439 149.243 53.9724 149.199 53.9724C149.154 53.9724 149.132 53.9552 149.132 53.9208C149.132 53.8633 149.184 53.8061 149.288 53.7486L149.632 53.4386C149.647 53.2433 149.725 52.9908 149.866 52.6808C150.007 52.3595 150.14 52.1986 150.266 52.1986C150.311 52.1986 150.333 52.2444 150.333 52.3364C150.333 52.4284 150.314 52.5603 150.277 52.7325ZM155.084 50.3731C155.173 50.4076 155.217 50.5223 155.217 50.7176C155.217 50.9011 155.121 51.2342 154.928 51.7164C154.743 52.1986 154.598 52.4972 154.494 52.6119C154.353 53.0597 154.227 53.6222 154.116 54.2997C154.012 54.9654 153.96 55.5568 153.96 56.0735C153.96 56.5901 154.057 56.8485 154.25 56.8485C154.479 56.8485 154.75 56.5385 155.062 55.9185C155.165 55.7349 155.365 55.2699 155.662 54.5235C155.692 54.4546 155.718 54.4202 155.74 54.4202C155.762 54.4202 155.773 54.4374 155.773 54.4719L155.751 54.5752C155.18 56.286 154.646 57.1412 154.149 57.1412C153.719 57.1412 153.504 56.659 153.504 55.6946C153.504 55.2238 153.571 54.5235 153.704 53.5936C153.423 54.4316 153.174 55.0918 152.959 55.5741C152.559 56.4238 152.188 56.8485 151.847 56.8485C151.506 56.8485 151.335 56.4927 151.335 55.7807C151.335 54.6899 151.71 53.5305 152.459 52.302C153.208 51.0734 153.942 50.3962 154.661 50.2698C155.202 48.2146 155.666 46.6075 156.051 45.4478C156.177 45.1836 156.378 45.0517 156.652 45.0517C156.756 45.0517 156.808 45.092 156.808 45.1722C156.229 46.8599 155.655 48.5935 155.084 50.3731ZM151.613 55.4535C151.613 55.9588 151.713 56.2113 151.914 56.2113C152.455 56.2113 152.985 55.2754 153.504 53.4041C153.356 53.473 153.252 53.5075 153.193 53.5075C153.141 53.5075 153.115 53.4844 153.115 53.4386C153.115 53.3811 153.163 53.3294 153.26 53.2836C153.363 53.2261 153.489 53.1172 153.638 52.9564C153.705 52.6808 153.756 52.4456 153.793 52.2503C153.838 52.055 153.875 51.9575 153.905 51.9575C153.957 51.9575 153.983 52.0092 153.983 52.1125C153.983 52.2158 153.949 52.4053 153.882 52.6808L154.083 52.4569L154.55 50.6659C153.986 50.8612 153.356 51.4984 152.659 52.5775C151.962 53.6566 151.613 54.6155 151.613 55.4535ZM158.989 54.5063C158.996 54.5063 159 54.5235 159 54.558C159 54.5924 158.97 54.6899 158.911 54.8507C158.681 55.4249 158.348 55.9588 157.91 56.4524C157.473 56.9346 157.061 57.1757 156.675 57.1757C156.149 57.1757 155.886 56.6476 155.886 55.5913C155.886 55.2355 155.912 54.8566 155.963 54.4547C155.897 54.3627 155.837 54.2366 155.785 54.0758C155.793 54.0871 155.811 54.1044 155.841 54.1274C155.871 54.1388 155.897 54.156 155.919 54.1791C155.949 54.1905 155.978 54.2022 156.008 54.2135C156.082 53.6511 156.308 53.0711 156.686 52.4742C157.065 51.8773 157.432 51.5786 157.788 51.5786C157.869 51.5786 157.91 51.5959 157.91 51.6303C157.91 51.6534 157.858 51.7106 157.754 51.8025C157.48 52.0323 157.224 52.3881 156.987 52.8703C156.735 53.3525 156.553 53.8347 156.442 54.3169L156.464 54.3513C156.82 54.3513 157.191 54.0871 157.576 53.5591C157.962 53.0311 158.155 52.4914 158.155 51.9403C158.155 51.7794 158.125 51.6303 158.066 51.4925C158.014 51.3434 157.925 51.2687 157.799 51.2687C157.673 51.2687 157.513 51.3606 157.32 51.5442C157.135 51.7164 157.031 51.8025 157.009 51.8025C156.994 51.8025 156.987 51.7967 156.987 51.7853C156.987 51.6475 157.106 51.5039 157.343 51.3548C157.587 51.2056 157.784 51.1309 157.932 51.1309C158.088 51.1309 158.221 51.2056 158.333 51.3548C158.444 51.5039 158.499 51.7106 158.499 51.9747C158.499 52.5834 158.255 53.1572 157.765 53.6969C157.283 54.2366 156.827 54.5349 156.397 54.5924C156.338 54.868 156.308 55.1321 156.308 55.3846C156.308 56.3377 156.531 56.814 156.976 56.814C157.317 56.814 157.658 56.6073 157.999 56.194C158.34 55.7693 158.614 55.2871 158.822 54.7474C158.889 54.5866 158.944 54.5063 158.989 54.5063Z" fill="#BEBEBE"/>
<path d="M39.489 34.1C40.269 34.1 40.889 33.78 41.349 33.14C41.809 32.48 42.039 31.5 42.039 30.2C42.039 27.6 41.189 26.3 39.489 26.3C38.849 26.3 38.259 26.54 37.719 27.02C37.199 27.5 36.939 28.01 36.939 28.55V31.85C36.939 32.39 37.199 32.9 37.719 33.38C38.259 33.86 38.849 34.1 39.489 34.1ZM41.589 22.1C43.429 22.1 44.889 22.8 45.969 24.2C47.049 25.58 47.589 27.58 47.589 30.2C47.589 32.76 47.019 34.75 45.879 36.17C44.759 37.59 43.329 38.3 41.589 38.3C40.009 38.3 38.539 37.7 37.179 36.5C37.159 36.48 37.139 36.47 37.119 36.47C37.099 36.47 37.089 36.48 37.089 36.5V42.89C37.089 43.35 36.919 43.75 36.579 44.09C36.239 44.43 35.839 44.6 35.379 44.6H33.099C32.639 44.6 32.239 44.43 31.899 44.09C31.559 43.75 31.389 43.35 31.389 42.89V24.11C31.389 23.65 31.559 23.25 31.899 22.91C32.239 22.57 32.639 22.4 33.099 22.4H35.139C35.619 22.4 36.029 22.57 36.369 22.91C36.709 23.23 36.889 23.63 36.909 24.11V24.35C36.909 24.37 36.919 24.38 36.939 24.38C36.959 24.38 36.979 24.37 36.999 24.35C38.239 22.85 39.769 22.1 41.589 22.1ZM55.9743 33.47C56.3543 34.09 56.9643 34.4 57.8043 34.4C58.6443 34.4 59.2543 34.09 59.6343 33.47C60.0143 32.83 60.2043 31.74 60.2043 30.2C60.2043 28.66 60.0143 27.58 59.6343 26.96C59.2543 26.32 58.6443 26 57.8043 26C56.9643 26 56.3543 26.32 55.9743 26.96C55.5943 27.58 55.4043 28.66 55.4043 30.2C55.4043 31.74 55.5943 32.83 55.9743 33.47ZM51.8343 24.26C53.2543 22.82 55.2443 22.1 57.8043 22.1C60.3643 22.1 62.3543 22.82 63.7743 24.26C65.1943 25.68 65.9043 27.66 65.9043 30.2C65.9043 32.74 65.1943 34.73 63.7743 36.17C62.3543 37.59 60.3643 38.3 57.8043 38.3C55.2443 38.3 53.2543 37.59 51.8343 36.17C50.4143 34.73 49.7043 32.74 49.7043 30.2C49.7043 27.66 50.4143 25.68 51.8343 24.26ZM79.5154 22.46C79.9754 22.4 80.3754 22.54 80.7154 22.88C81.0554 23.22 81.2254 23.63 81.2254 24.11V24.89C81.2254 25.35 81.0654 25.75 80.7454 26.09C80.4254 26.41 80.0254 26.6 79.5454 26.66C78.0054 26.86 76.7754 27.44 75.8554 28.4C74.9354 29.34 74.4754 30.49 74.4754 31.85V36.29C74.4754 36.75 74.3054 37.15 73.9654 37.49C73.6254 37.83 73.2254 38 72.7654 38H70.3354C69.8754 38 69.4754 37.83 69.1354 37.49C68.7954 37.15 68.6254 36.75 68.6254 36.29V24.11C68.6254 23.65 68.7954 23.25 69.1354 22.91C69.4754 22.57 69.8754 22.4 70.3354 22.4H72.6154C73.0754 22.4 73.4754 22.57 73.8154 22.91C74.1554 23.25 74.3254 23.65 74.3254 24.11V25.37C74.3254 25.39 74.3354 25.4 74.3554 25.4C74.3754 25.4 74.3954 25.39 74.4154 25.37C75.6754 23.71 77.3754 22.74 79.5154 22.46ZM95.4564 23C95.9164 23 96.3164 23.17 96.6564 23.51C96.9964 23.85 97.1664 24.25 97.1664 24.71V25.19C97.1664 25.65 96.9964 26.05 96.6564 26.39C96.3164 26.73 95.9164 26.9 95.4564 26.9H92.7864C92.6064 26.9 92.5164 26.99 92.5164 27.17V31.4C92.5164 32.6 92.6164 33.35 92.8164 33.65C93.0164 33.95 93.4664 34.1 94.1664 34.1C94.4464 34.1 94.7864 34.07 95.1864 34.01C95.6064 33.95 95.9864 34.06 96.3264 34.34C96.6864 34.6 96.8664 34.94 96.8664 35.36V36.14C96.8664 36.64 96.7064 37.09 96.3864 37.49C96.0864 37.87 95.6964 38.09 95.2164 38.15C94.5164 38.25 93.6664 38.3 92.6664 38.3C90.5264 38.3 89.0164 37.84 88.1364 36.92C87.2564 36 86.8164 34.36 86.8164 32V27.17C86.8164 26.99 86.7264 26.9 86.5464 26.9H85.3764C84.9164 26.9 84.5164 26.73 84.1764 26.39C83.8364 26.05 83.6664 25.65 83.6664 25.19V24.71C83.6664 24.25 83.8364 23.85 84.1764 23.51C84.5164 23.17 84.9164 23 85.3764 23H86.5464C86.7264 23 86.8164 22.91 86.8164 22.73V19.01C86.8164 18.55 86.9864 18.15 87.3264 17.81C87.6664 17.47 88.0664 17.3 88.5264 17.3H90.8064C91.2664 17.3 91.6664 17.47 92.0064 17.81C92.3464 18.15 92.5164 18.55 92.5164 19.01V22.73C92.5164 22.91 92.6064 23 92.7864 23H95.4564ZM112.197 15.95C112.677 16.01 113.067 16.24 113.367 16.64C113.687 17.02 113.847 17.46 113.847 17.96V18.59C113.847 19.01 113.677 19.35 113.337 19.61C113.017 19.87 112.647 19.97 112.227 19.91C111.867 19.87 111.607 19.85 111.447 19.85C110.507 19.85 109.897 20.01 109.617 20.33C109.337 20.63 109.197 21.32 109.197 22.4V22.73C109.197 22.91 109.287 23 109.467 23H111.837C112.297 23 112.697 23.17 113.037 23.51C113.377 23.85 113.547 24.25 113.547 24.71V25.19C113.547 25.65 113.377 26.05 113.037 26.39C112.697 26.73 112.297 26.9 111.837 26.9H109.467C109.287 26.9 109.197 26.99 109.197 27.17V36.29C109.197 36.75 109.027 37.15 108.687 37.49C108.347 37.83 107.947 38 107.487 38H105.057C104.597 38 104.197 37.83 103.857 37.49C103.517 37.15 103.347 36.75 103.347 36.29V27.17C103.347 26.99 103.257 26.9 103.077 26.9H101.757C101.297 26.9 100.897 26.73 100.557 26.39C100.217 26.05 100.047 25.65 100.047 25.19V24.71C100.047 24.25 100.217 23.85 100.557 23.51C100.897 23.17 101.297 23 101.757 23H103.077C103.257 23 103.347 22.91 103.347 22.73V22.4C103.347 20.12 103.877 18.45 104.937 17.39C105.997 16.33 107.667 15.8 109.947 15.8C110.647 15.8 111.397 15.85 112.197 15.95ZM121.482 33.47C121.862 34.09 122.472 34.4 123.312 34.4C124.152 34.4 124.762 34.09 125.142 33.47C125.522 32.83 125.712 31.74 125.712 30.2C125.712 28.66 125.522 27.58 125.142 26.96C124.762 26.32 124.152 26 123.312 26C122.472 26 121.862 26.32 121.482 26.96C121.102 27.58 120.912 28.66 120.912 30.2C120.912 31.74 121.102 32.83 121.482 33.47ZM117.342 24.26C118.762 22.82 120.752 22.1 123.312 22.1C125.872 22.1 127.862 22.82 129.282 24.26C130.702 25.68 131.412 27.66 131.412 30.2C131.412 32.74 130.702 34.73 129.282 36.17C127.862 37.59 125.872 38.3 123.312 38.3C120.752 38.3 118.762 37.59 117.342 36.17C115.922 34.73 115.212 32.74 115.212 30.2C115.212 27.66 115.922 25.68 117.342 24.26ZM139.023 15.5C139.483 15.5 139.883 15.67 140.223 16.01C140.563 16.35 140.733 16.75 140.733 17.21V36.29C140.733 36.75 140.563 37.15 140.223 37.49C139.883 37.83 139.483 38 139.023 38H136.443C135.983 38 135.583 37.83 135.243 37.49C134.903 37.15 134.733 36.75 134.733 36.29V17.21C134.733 16.75 134.903 16.35 135.243 16.01C135.583 15.67 135.983 15.5 136.443 15.5H139.023ZM149.424 22.4C149.884 22.4 150.284 22.57 150.624 22.91C150.964 23.25 151.134 23.65 151.134 24.11V36.29C151.134 36.75 150.964 37.15 150.624 37.49C150.284 37.83 149.884 38 149.424 38H146.844C146.384 38 145.984 37.83 145.644 37.49C145.304 37.15 145.134 36.75 145.134 36.29V24.11C145.134 23.65 145.304 23.25 145.644 22.91C145.984 22.57 146.384 22.4 146.844 22.4H149.424ZM149.424 15.5C149.884 15.5 150.284 15.67 150.624 16.01C150.964 16.35 151.134 16.75 151.134 17.21V17.99C151.134 18.45 150.964 18.85 150.624 19.19C150.284 19.53 149.884 19.7 149.424 19.7H146.844C146.384 19.7 145.984 19.53 145.644 19.19C145.304 18.85 145.134 18.45 145.134 17.99V17.21C145.134 16.75 145.304 16.35 145.644 16.01C145.984 15.67 146.384 15.5 146.844 15.5H149.424ZM160.74 33.47C161.12 34.09 161.73 34.4 162.57 34.4C163.41 34.4 164.02 34.09 164.4 33.47C164.78 32.83 164.97 31.74 164.97 30.2C164.97 28.66 164.78 27.58 164.4 26.96C164.02 26.32 163.41 26 162.57 26C161.73 26 161.12 26.32 160.74 26.96C160.36 27.58 160.17 28.66 160.17 30.2C160.17 31.74 160.36 32.83 160.74 33.47ZM156.6 24.26C158.02 22.82 160.01 22.1 162.57 22.1C165.13 22.1 167.12 22.82 168.54 24.26C169.96 25.68 170.67 27.66 170.67 30.2C170.67 32.74 169.96 34.73 168.54 36.17C167.12 37.59 165.13 38.3 162.57 38.3C160.01 38.3 158.02 37.59 156.6 36.17C155.18 34.73 154.47 32.74 154.47 30.2C154.47 27.66 155.18 25.68 156.6 24.26Z" fill="#ED5C40"/>
<path d="M36.392 14.7156C37.6046 13.5031 38.2857 11.8586 38.2857 10.1438C38.2857 8.42903 37.6046 6.78449 36.392 5.57196C35.1795 4.35943 33.535 3.67824 31.8202 3.67824C30.1054 3.67824 28.4609 4.35943 27.2484 5.57196L31.8202 10.1438L36.392 14.7156Z" fill="#2594A6"/>
<path d="M27.2479 60.0682C27.8482 60.6686 28.561 61.1448 29.3454 61.4697C30.1299 61.7947 30.9706 61.9619 31.8197 61.9619C32.6688 61.9619 33.5095 61.7947 34.294 61.4697C35.0784 61.1448 35.7912 60.6686 36.3915 60.0682C36.9919 59.4678 37.4682 58.755 37.7931 57.9706C38.118 57.1862 38.2853 56.3454 38.2853 55.4963C38.2853 54.6473 38.118 53.8065 37.7931 53.0221C37.4682 52.2376 36.9919 51.5249 36.3915 50.9245L31.8197 55.4963L27.2479 60.0682Z" fill="#166B7C"/>
<path d="M9.14368 41.9637C7.94291 40.763 6.99042 39.3375 6.34057 37.7686C5.69072 36.1997 5.35624 34.5182 5.35624 32.8201C5.35624 31.1219 5.69072 29.4404 6.34057 27.8715C6.99042 26.3027 7.94291 24.8772 9.14368 23.6764L18.2874 32.8201L9.14368 41.9637Z" fill="#166B7C"/>
<path d="M27.4312 5.38916L36.5748 14.5328L18.2875 32.8202L9.1438 23.6765L27.4312 5.38916Z" fill="#2594A6"/>
<path d="M36.5747 51.1075L27.431 60.2512L9.14367 41.9639L18.2874 32.8202L36.5747 51.1075Z" fill="#166B7C"/>
<path d="M163.248 49.9241C162.036 51.1366 161.354 52.7811 161.354 54.4959C161.354 56.2106 162.036 57.8552 163.248 59.0677C164.461 60.2802 166.105 60.9614 167.82 60.9614C169.535 60.9614 171.179 60.2803 172.392 59.0677L167.82 54.4959L163.248 49.9241Z" fill="#2594A6"/>
<path d="M172.392 4.57181C171.791 3.97143 171.079 3.49518 170.294 3.17025C169.51 2.84533 168.669 2.67809 167.82 2.67808C166.971 2.67808 166.13 2.84531 165.346 3.17023C164.561 3.49515 163.848 3.97139 163.248 4.57177C162.648 5.17214 162.171 5.88489 161.847 6.66932C161.522 7.45376 161.354 8.29451 161.354 9.14357C161.354 9.99263 161.522 10.8334 161.847 11.6178C162.171 12.4023 162.648 13.115 163.248 13.7154L167.82 9.1436L172.392 4.57181Z" fill="#166B7C"/>
<path d="M190.496 22.6762C191.697 23.877 192.649 25.3025 193.299 26.8714C193.949 28.4402 194.283 30.1217 194.283 31.8199C194.283 33.518 193.949 35.1995 193.299 36.7684C192.649 38.3372 191.697 39.7627 190.496 40.9635L181.352 31.8198L190.496 22.6762Z" fill="#166B7C"/>
<path d="M172.209 59.2505L163.065 50.1068L181.352 31.8197L190.496 40.9633L172.209 59.2505Z" fill="#2594A6"/>
<path d="M163.065 13.5323L172.209 4.38877L190.496 22.6761L181.353 31.8197L163.065 13.5323Z" fill="#166B7C"/>
</svg>
