<svg width="550" height="400" viewBox="0 0 550 400" fill="none" xmlns="http://www.w3.org/2000/svg">
<path d="M45 65C45 53.9543 53.9543 45 65 45H309.368V355H65C53.9543 355 45 346.046 45 335V65Z" fill="#2594A6"/>
<path d="M45 65C45 53.9543 53.9543 45 65 45H309.368V355H65C53.9543 355 45 346.046 45 335V65Z" stroke="black"/>
<path d="M304.08 45H485C496.046 45 505 53.9543 505 65V335C505 346.046 496.046 355 485 355H304.08V45Z" fill="#166B7C"/>
<rect x="124.31" y="63.7881" width="105.747" height="18.7879" fill="#D9D9D9"/>
<rect x="124.31" y="176.515" width="105.747" height="18.7879" fill="#D9D9D9"/>
<rect x="124.31" y="120.151" width="105.747" height="18.7879" fill="#D9D9D9"/>
<rect x="124.31" y="214.091" width="105.747" height="18.7879" fill="#2594A6"/>
<rect x="122.195" y="289.242" width="105.747" height="18.7879" fill="#2594A6"/>
<rect x="122.195" y="308.03" width="105.747" height="14.0909" fill="#EF652A"/>
<rect x="124.31" y="45" width="105.747" height="18.7879" fill="#2594A6"/>
<rect x="124.31" y="157.727" width="105.747" height="18.7879" fill="#2594A6"/>
<rect x="124.31" y="101.364" width="105.747" height="18.7879" fill="#2594A6"/>
<rect x="124.31" y="232.879" width="105.747" height="9.39394" fill="#D9D9D9"/>
<rect x="122.195" y="322.121" width="105.747" height="9.39394" fill="#2594A6"/>
<mask id="path-14-inside-1_333_8" fill="white">
<path d="M71.4368 73.1816H282.931V101.363H71.4368V73.1816Z"/>
</mask>
<path d="M71.4368 73.1816H282.931V101.363H71.4368V73.1816Z" fill="#2594A6"/>
<path d="M282.931 98.3635H71.4368V104.363H282.931V98.3635Z" fill="#ED5C40" mask="url(#path-14-inside-1_333_8)"/>
<mask id="path-16-inside-2_333_8" fill="white">
<path d="M71.4368 185.909H282.931V214.091H71.4368V185.909Z"/>
</mask>
<path d="M71.4368 185.909H282.931V214.091H71.4368V185.909Z" fill="#2594A6"/>
<path d="M282.931 211.091H71.4368V217.091H282.931V211.091Z" fill="#ED5C40" mask="url(#path-16-inside-2_333_8)"/>
<mask id="path-18-inside-3_333_8" fill="white">
<path d="M71.4368 129.545H282.931V157.727H71.4368V129.545Z"/>
</mask>
<path d="M71.4368 129.545H282.931V157.727H71.4368V129.545Z" fill="#2594A6"/>
<path d="M282.931 154.727H71.4368V160.727H282.931V154.727Z" fill="#ED5C40" mask="url(#path-18-inside-3_333_8)"/>
<mask id="path-20-inside-4_333_8" fill="white">
<path d="M71.4368 242.273H282.931V289.243H71.4368V242.273Z"/>
</mask>
<path d="M71.4368 242.273H282.931V289.243H71.4368V242.273Z" fill="#2594A6"/>
<path d="M282.931 286.243H71.4368V292.243H282.931V286.243Z" fill="#ED5C40" mask="url(#path-20-inside-4_333_8)"/>
<rect x="316.77" y="141.758" width="97.2874" height="15.9697" fill="#D9D9D9"/>
<rect x="316.77" y="90.0908" width="158.621" height="15.0303" fill="#D9D9D9"/>
<rect x="316.77" y="116.394" width="96.2299" height="15.0303" fill="#D9D9D9"/>
<rect x="316.77" y="63.7881" width="158.621" height="15.9697" fill="#D9D9D9"/>
<path d="M505 12.5H45C27.0507 12.5 12.5 27.0507 12.5 45V355C12.5 372.949 27.0508 387.5 45 387.5H505C522.949 387.5 537.5 372.949 537.5 355V45C537.5 27.0507 522.949 12.5 505 12.5Z" stroke="black" stroke-width="25"/>
</svg>
